<?xml version="1.0" encoding="UTF-8"?>
<svg width="104px" height="117px" viewBox="0 0 104 117" version="1.1" xmlns="http://www.w3.org/2000/svg" xmlns:xlink="http://www.w3.org/1999/xlink">
    <!-- Generator: Sketch 41 (35326) - http://www.bohemiancoding.com/sketch -->
    <title>Path 2</title>
    <desc>Created with Sketch.</desc>
    <defs></defs>
    <g id="Page-1" stroke="none" stroke-width="1" fill="none" fill-rule="evenodd" stroke-linecap="round" stroke-linejoin="round">
        <g id="1_Main" transform="translate(-794.000000, -529.000000)" stroke="#000000" stroke-width="2">
            <g id="Text" transform="translate(598.000000, 286.000000)">
                <path d="M240.357902,246.157986 C241.612348,244.146547 233.761247,232.841514 212.107636,292.540642 C190.454026,352.23977 196.82178,364.191852 202.382677,347.268848 C207.943573,330.345844 229.96847,256.033743 237.562434,253.11992 C241.38525,250.836324 233.16166,266.184662 227.250504,293.166664 C221.339349,320.148665 213.374098,356.799152 213.374098,356.799152 C213.374098,356.799152 211.869123,363.439665 212.107636,353.548888 C212.346149,343.658111 223.056401,293.504307 230.541622,290.934134 C235.668749,289.251927 228.432255,307.584981 226.577621,317.342383 C224.722988,327.099785 224.318057,334.407774 230.541622,325.014449 C236.765188,315.621125 241.905532,304.002481 243.597352,299.998227 C245.289172,295.993973 250.698669,279.340723 250.698669,286.512934 C250.698669,293.685144 246.230607,303.944204 244.988177,312.971649 C243.745747,321.999093 249.446627,320.978955 253.495339,315.89208 C257.544051,310.805206 264.451314,298.765409 266.930767,294.392872 C269.41022,290.020335 271.753294,284.069528 273.103265,287.485009 C274.453237,290.90049 281.149623,298.782231 298.467945,284.873382" id="Path-2"></path>
            </g>
        </g>
    </g>
</svg>